<svg width="25" height="25" viewBox="0 0 25 25" fill="none" xmlns="http://www.w3.org/2000/svg">
<path d="M12.4997 0C5.59639 0 0 5.61706 0 12.5459C0 18.4295 4.03592 23.3665 9.48031 24.7225V16.3799H6.90286V12.5459H9.48031V10.8939C9.48031 6.62374 11.4058 4.6445 15.5827 4.6445C16.3747 4.6445 17.7411 4.80057 18.3001 4.95614V8.43136C18.0051 8.40024 17.4927 8.38469 16.8562 8.38469C14.8067 8.38469 14.0147 9.16404 14.0147 11.19V12.5459H18.0976L17.3962 16.3799H14.0147V25C20.2041 24.2498 25 18.9604 25 12.5459C24.9995 5.61706 19.4031 0 12.4997 0Z" fill="white"/>
</svg>
